<?xml version="1.0" encoding="UTF-8"?>
<svg id="Layer_1" data-name="Layer 1" xmlns="http://www.w3.org/2000/svg" viewBox="0 0 328.59 252.35">
  <defs>
    <style>
      .cls-1 {
        fill: none;
        stroke: #fff;
        stroke-linecap: round;
        stroke-miterlimit: 10;
        stroke-width: 1.5px;
      }

      .cls-2 {
        fill: #b23027;
      }

      .cls-2, .cls-3 {
        stroke-width: 0px;
      }

      .cls-3 {
        fill: #fff;
      }
    </style>
  </defs>
  <path class="cls-2" d="M310.16,71.61c-1.79-2.54-4.28-4.44-7.2-5.49L172.41,19.22c-5.22-1.88-11-1.88-16.23,0L25.63,66.13c-2.92,1.05-5.41,2.95-7.2,5.49-1.79,2.54-2.73,5.52-2.73,8.63v91.86c0,3.11.94,6.09,2.73,8.63s4.27,4.44,7.2,5.49l130.55,46.9c2.61.94,5.34,1.41,8.11,1.41s5.5-.48,8.11-1.41l130.55-46.9c2.92-1.05,5.41-2.95,7.2-5.49,1.79-2.54,2.73-5.52,2.73-8.63v-91.87c.01-3.1-.93-6.09-2.72-8.63ZM307.64,172.1c0,2.02-.61,3.96-1.77,5.61-1.16,1.65-2.78,2.88-4.68,3.57l-130.55,46.9c-2.04.73-4.17,1.1-6.34,1.1s-4.3-.37-6.34-1.1L27.41,181.28c-1.9-.68-3.52-1.92-4.68-3.57-1.16-1.65-1.77-3.59-1.77-5.61v-91.86c0-2.02.61-3.96,1.77-5.61,1.16-1.65,2.78-2.88,4.68-3.57L157.96,24.16c4.08-1.46,8.6-1.46,12.68,0l130.55,46.9c1.9.68,3.52,1.92,4.68,3.57,1.16,1.65,1.77,3.59,1.77,5.61v91.86Z"/>
  <path class="cls-2" d="M300.68,72.48L170.13,25.58c-1.88-.67-3.84-1.02-5.83-1.02s-3.96.34-5.83,1.02L27.91,72.48c-1.61.58-2.98,1.62-3.96,3.02-.98,1.4-1.5,3.04-1.5,4.75v91.86c0,1.71.52,3.35,1.5,4.75s2.35,2.44,3.96,3.02l130.55,46.9c3.75,1.35,7.91,1.35,11.66,0l130.55-46.9c1.61-.58,2.98-1.62,3.96-3.02s1.5-3.04,1.5-4.75v-91.87c0-1.71-.52-3.35-1.5-4.75-.97-1.39-2.34-2.43-3.95-3.01Z"/>
  <g>
    <g>
      <path class="cls-3" d="M61.44,153.71c-1.14-.67-2.18-1.64-3.12-2.88-.94-1.27-1.77-2.49-2.49-3.66-.73-1.17-1.43-2.49-2.1-3.97-.26-.57-.57-.96-.94-1.17-.29-.18-.6-.27-.94-.27-.26,0-.39.26-.39.78v7.56c0,.78.21,1.32.64,1.64.43.31,1.22.6,2.39.86.26.05.45.14.57.27s.17.31.17.54c0,.39-.21.58-.62.58l-3.39-.08-3.16-.08c-.47,0-1.4.03-2.8.08-1.04.08-2.05.12-3.04.12-.16,0-.31-.06-.47-.18s-.23-.25-.23-.41c0-.44.25-.73.74-.86,1.01-.21,1.69-.47,2.05-.8.35-.32.53-.88.53-1.66v-17.68c0-.83-.16-1.42-.47-1.77s-.93-.63-1.87-.84c-.54-.13-.82-.4-.82-.82,0-.18.07-.33.21-.45s.33-.17.57-.17c.93,0,1.97.05,3.12.16,1.04.1,1.86.16,2.45.16.49,0,1.21-.05,2.14-.16,1.14-.16,2.3-.23,3.47-.23,3.12,0,5.5.52,7.14,1.56,1.65,1.04,2.47,2.6,2.47,4.67,0,1.58-.49,2.86-1.48,3.84-.99.97-2.2,1.67-3.62,2.08-.08.03-.12.09-.12.19s.02.19.08.27c1.3,1.95,2.49,3.63,3.58,5.06,1.09,1.43,2.16,2.64,3.2,3.62.8.75,1.64,1.23,2.51,1.44s1.91.31,3.13.31c.39,0,.58.25.58.74,0,1.74-1.66,2.61-4.99,2.61-1.97.01-3.54-.33-4.68-1ZM55.89,139.1c.69-.88,1.03-2.09,1.03-3.62,0-1.82-.34-3.16-1.01-4.03s-1.65-1.3-2.92-1.3c-.55,0-.94.24-1.17.72s-.35,1.43-.35,2.86v5.22c0,.99.45,1.48,1.36,1.48,1.35,0,2.37-.44,3.06-1.33Z"/>
      <path class="cls-3" d="M77.42,152.83c-2.09-1.08-3.76-2.59-5.01-4.54-1.24-1.95-1.87-4.17-1.87-6.66s.55-4.62,1.64-6.7,2.7-3.74,4.81-5c2.12-1.26,4.63-1.89,7.54-1.89,2.42,0,4.67.54,6.76,1.62s3.76,2.59,5.01,4.54,1.87,4.17,1.87,6.66-.54,4.62-1.64,6.7c-1.09,2.08-2.69,3.75-4.81,5.01-2.12,1.26-4.63,1.89-7.54,1.89-2.41,0-4.67-.55-6.76-1.63ZM89.5,149.97c1.08-1.77,1.62-4.13,1.62-7.09,0-2.21-.27-4.3-.8-6.27-.53-1.97-1.35-3.58-2.45-4.83s-2.47-1.87-4.11-1.87c-2,0-3.53.88-4.58,2.65-1.05,1.77-1.58,4.12-1.58,7.05,0,2.18.27,4.26.8,6.25.53,1.99,1.34,3.61,2.43,4.87,1.09,1.26,2.44,1.89,4.05,1.89,2,0,3.54-.88,4.62-2.65Z"/>
      <path class="cls-3" d="M96.13,153.43c0-.23.07-.41.21-.53s.36-.23.64-.33c.78-.21,1.45-.53,2.01-.97.56-.44.97-.95,1.23-1.52,2.47-5.74,4.69-11.37,6.66-16.9.31-.86.56-1.63.74-2.32s.3-1.03.35-1.03c1.12-.26,2.09-.53,2.92-.82.44-.16.86-.36,1.25-.62s.69-.51.9-.74c.21-.1.34-.16.39-.16.13,0,.23.09.31.27.18.39.33.75.43,1.09,1.61,5.25,3.39,10.83,5.34,16.75l1.44,4.48c.36,1.19,1.4,2.03,3.12,2.49.28.1.5.21.64.31.14.1.21.27.21.51,0,.18-.07.32-.21.43-.14.1-.32.16-.53.16-.52,0-1.56-.03-3.12-.08-1.61-.05-2.73-.08-3.35-.08-.52,0-1.51.03-2.96.08-1.19.08-2.29.12-3.27.12-.23,0-.43-.05-.58-.16-.16-.1-.23-.25-.23-.43,0-.44.28-.73.86-.86.91-.18,1.58-.41,2.01-.68.43-.27.64-.66.64-1.15,0-.26-.02-.47-.08-.62l-1.21-4.52c-.05-.23-.12-.4-.21-.51-.09-.1-.23-.16-.41-.16h-6.77c-.21,0-.35.05-.43.16-.08.1-.16.27-.23.51l-.55,1.67c-.08.29-.19.66-.35,1.13-.16.47-.29.88-.39,1.25-.1.34-.16.68-.16,1.01,0,.49.19.88.57,1.15.38.27,1.04.53,2.01.76.57.13.86.42.86.86,0,.36-.27.55-.82.55-.6,0-1.36-.03-2.3-.08l-2.1-.04c-.73,0-1.44.04-2.14.12-.23.03-.58.05-1.05.08s-.88.04-1.25.04c-.7,0-1.04-.22-1.04-.67ZM111.44,142.69c.39,0,.58-.09.58-.27,0-.03-.02-.17-.08-.43l-2.49-8.61c-.08-.26-.16-.39-.23-.39-.05,0-.13.13-.23.39l-3,8.61c-.05.1-.08.21-.08.31,0,.13.07.23.2.29.13.07.29.1.47.1h4.86Z"/>
      <path class="cls-3" d="M135.28,153.98l-2.03-.08-2.8.04c-1.4.05-2.41.08-3.04.08-.16,0-.31-.06-.47-.18s-.23-.25-.23-.41c0-.44.25-.73.74-.86,1.01-.21,1.69-.47,2.05-.8.35-.32.53-.88.53-1.66v-17.68c0-.83-.17-1.41-.51-1.75s-1.03-.62-2.06-.86c-.49-.13-.74-.42-.74-.86,0-.16.08-.29.23-.41.16-.12.31-.17.47-.17.96,0,1.97.04,3.04.12,1.4.05,2.34.08,2.8.08.42,0,1.59-.05,3.51-.16,2.85-.13,4.42-.2,4.71-.2,2.42,0,4.67.53,6.76,1.6,2.09,1.06,3.76,2.56,5,4.48,1.25,1.92,1.87,4.1,1.87,6.54s-.55,4.53-1.64,6.56c-1.09,2.04-2.69,3.67-4.81,4.91-2.11,1.23-4.63,1.85-7.53,1.85-1.18.01-3.12-.05-5.85-.18ZM146.11,149.36c1.25-1.78,1.87-4.24,1.87-7.38,0-3.53-.66-6.33-1.99-8.39-1.32-2.06-3.28-3.1-5.88-3.1-1.32,0-2.23.07-2.73.21-.49.14-.74.5-.74,1.07v16.9c0,1.19.3,2.05.91,2.57s1.59.78,2.94.78c2.5,0,4.37-.88,5.62-2.66Z"/>
      <path class="cls-3" d="M156.89,153.84c-.16-.12-.23-.25-.23-.41,0-.44.25-.73.74-.86.91-.23,1.52-.51,1.85-.82.32-.31.49-.86.49-1.64v-17.68c0-.83-.16-1.41-.47-1.75s-.93-.62-1.87-.86c-.49-.13-.74-.42-.74-.86,0-.16.08-.29.23-.41.16-.12.31-.17.47-.17.94,0,1.91.04,2.92.12,1.3.05,2.19.08,2.69.08s1.47-.03,2.92-.08c1.5-.05,2.54-.08,3.12-.08.41,0,.62.19.62.58,0,.23-.06.41-.17.53-.12.12-.3.21-.57.29-1.06.31-1.75.64-2.06.97-.31.34-.47.9-.47,1.67v6.89c0,.39.21.58.62.58h9.39c.36,0,.55-.19.55-.58v-6.89c0-.78-.16-1.34-.47-1.67-.31-.34-1-.66-2.06-.97-.26-.08-.45-.18-.56-.29-.12-.12-.18-.29-.18-.53,0-.39.21-.58.62-.58.57,0,1.61.03,3.12.08,1.45.05,2.43.08,2.92.08s1.39-.03,2.69-.08c1.01-.08,1.98-.12,2.92-.12.18,0,.35.06.49.17.14.12.21.25.21.41,0,.44-.25.73-.74.86-.94.23-1.56.52-1.87.86s-.47.92-.47,1.75v17.68c0,.78.16,1.32.49,1.64.32.31.94.58,1.85.82.49.13.74.42.74.86,0,.16-.07.29-.21.41-.14.12-.31.18-.49.18-.47,0-1.38-.03-2.73-.08-1.04-.08-2-.12-2.88-.12-.49,0-1.47.03-2.92.08-1.51.05-2.55.08-3.12.08-.42,0-.62-.19-.62-.58,0-.23.06-.41.18-.53s.3-.21.56-.29c1.01-.28,1.69-.59,2.03-.92.34-.32.51-.85.51-1.58v-7.24c0-.44-.18-.66-.55-.66h-9.39c-.41,0-.62.22-.62.66v7.24c0,.73.17,1.25.51,1.58s1.01.63,2.02.92c.26.08.45.18.57.29.12.12.17.29.17.53,0,.39-.21.58-.62.58-.57,0-1.61-.03-3.12-.08-1.46-.05-2.43-.08-2.92-.08-.86,0-1.82.04-2.88.12-1.35.05-2.26.08-2.73.08-.17,0-.32-.06-.48-.18Z"/>
      <path class="cls-3" d="M195.04,152.83c-2.09-1.08-3.76-2.59-5.01-4.54-1.24-1.95-1.87-4.17-1.87-6.66s.55-4.62,1.64-6.7,2.7-3.74,4.81-5c2.12-1.26,4.63-1.89,7.54-1.89,2.42,0,4.67.54,6.76,1.62s3.76,2.59,5.01,4.54,1.87,4.17,1.87,6.66-.54,4.62-1.64,6.7c-1.09,2.08-2.69,3.75-4.81,5.01s-4.63,1.89-7.54,1.89c-2.42,0-4.67-.55-6.76-1.63ZM207.11,149.97c1.08-1.77,1.62-4.13,1.62-7.09,0-2.21-.27-4.3-.8-6.27s-1.35-3.58-2.45-4.83c-1.1-1.25-2.47-1.87-4.11-1.87-2,0-3.53.88-4.58,2.65-1.05,1.77-1.58,4.12-1.58,7.05,0,2.18.27,4.26.8,6.25s1.34,3.61,2.43,4.87,2.44,1.89,4.05,1.89c2.01,0,3.55-.88,4.62-2.65Z"/>
      <path class="cls-3" d="M223,151.62c-1.91-1.88-2.86-4.44-2.86-7.69v-10.91c0-.73-.18-1.4-.53-2.01s-.85-1.01-1.5-1.19c-.7-.18-1.05-.47-1.05-.86,0-.18.1-.32.29-.43.2-.1.44-.16.72-.16.91,0,1.84.04,2.8.12,1.19.05,2.04.08,2.53.08s1.41-.03,2.76-.08c1.4-.05,2.39-.08,2.96-.08.67,0,1.01.19,1.01.58,0,.21-.1.38-.31.51-.21.13-.48.25-.8.37s-.59.23-.8.33c-.96.47-1.44,1.48-1.44,3.04v10.05c0,2.44.56,4.29,1.67,5.55,1.12,1.26,2.53,1.89,4.25,1.89,2.31,0,4.03-.66,5.16-1.99,1.13-1.32,1.69-3.39,1.69-6.19,0-1.09,0-1.93.04-2.53l.04-2.92c0-.83,0-1.43-.04-1.79-.03-1.25-.11-2.2-.25-2.86s-.35-1.17-.64-1.52-.72-.67-1.29-.95c-.18-.1-.41-.2-.7-.29s-.51-.19-.66-.29-.23-.23-.23-.39c0-.39.39-.58,1.17-.58s1.62.03,2.45.08l1.48.04c.47,0,1.04-.03,1.71-.08.67-.05,1.3-.08,1.87-.08.65,0,.97.19.97.58,0,.36-.34.65-1.01.86-.88.26-1.51.66-1.87,1.21s-.57,1.32-.62,2.34c-.13,3.14-.2,6.54-.2,10.2,0,2.1-.47,3.98-1.4,5.63-.93,1.65-2.2,2.94-3.8,3.86-1.59.92-3.37,1.38-5.32,1.38-3.58,0-6.34-.94-8.25-2.83Z"/>
      <path class="cls-3" d="M248.18,152.85c-.44-.26-.74-.58-.9-.97-.47-1.22-.7-2.8-.7-4.75,0-.55,0-.96.04-1.25,0-.34.25-.51.74-.51.26,0,.44.03.54.1.11.07.21.2.31.41.62,2.03,1.52,3.65,2.69,4.87s2.52,1.83,4.05,1.83c1.12,0,1.97-.37,2.57-1.11s.9-1.56.9-2.47c0-1.09-.33-1.97-.98-2.65-.65-.67-1.8-1.47-3.46-2.38-1.46-.78-2.62-1.49-3.51-2.14-.88-.65-1.63-1.49-2.24-2.51s-.91-2.25-.91-3.68c0-1.5.41-2.84,1.24-3.99.83-1.16,1.96-2.05,3.39-2.67s2.98-.93,4.67-.93c.94,0,1.88.1,2.82.29.95.19,1.73.42,2.36.68.34.13.57.27.7.43.13.16.26.44.39.86.26,1.04.39,2.61.39,4.71,0,.13-.07.25-.19.35-.13.1-.31.16-.55.16s-.44-.06-.62-.18-.3-.27-.35-.45c-.42-1.58-1.06-2.79-1.95-3.62-.88-.83-1.96-1.25-3.23-1.25-2.31,0-3.47,1.1-3.47,3.31,0,.81.41,1.57,1.23,2.28s2.15,1.62,3.99,2.71c2.21,1.32,3.72,2.59,4.54,3.8s1.23,2.68,1.23,4.42c0,2.67-.84,4.66-2.51,5.96-1.68,1.3-3.99,1.95-6.95,1.95-2.42-.01-4.51-.55-6.27-1.61Z"/>
      <path class="cls-3" d="M266.09,153.9c-.13-.13-.2-.27-.2-.43s.07-.31.21-.47c.14-.16.33-.27.57-.35.91-.26,1.52-.54,1.85-.86.32-.31.49-.84.49-1.6v-17.76c0-.83-.16-1.42-.47-1.77s-.93-.63-1.87-.84c-.54-.13-.82-.4-.82-.82,0-.18.07-.33.21-.45.14-.12.33-.17.56-.17.94,0,1.91.04,2.92.12,1.3.05,2.19.08,2.69.08,3.48,0,6.5-.04,9.08-.12.81,0,1.49-.05,2.04-.16.56-.1.88-.16.95-.16.23,0,.45.07.66.2.21.13.33.34.35.62.08.86.2,1.65.35,2.38.21,1.45.31,2.41.31,2.88,0,.23-.05.42-.14.57-.09.14-.21.21-.37.21s-.3-.06-.45-.18c-.14-.12-.27-.28-.37-.49-.39-.96-.67-1.62-.86-1.99-.18-.36-.4-.67-.66-.93-.36-.36-.77-.66-1.21-.9-.44-.23-.99-.35-1.64-.35h-2.45c-.65,0-1.18.16-1.6.49-.41.32-.62.76-.62,1.3v7.17c0,.62.34.93,1.01.93h3.31c.6,0,1.04-.19,1.35-.58.3-.39.6-1,.91-1.83.21-.47.48-.7.82-.7.13,0,.25.09.35.25.1.17.14.38.12.64-.13,1.25-.19,2.32-.19,3.23,0,1.12.05,2.19.16,3.23v.31c0,.52-.13.78-.39.78-.18,0-.36-.09-.54-.27-.18-.18-.31-.4-.39-.66-.23-.88-.51-1.53-.82-1.95s-.7-.62-1.17-.62h-3.66c-.57,0-.86.3-.86.9v7.36c0,.7.15,1.21.45,1.52.3.31.79.47,1.46.47h3.47c1.19,0,2.14-.3,2.84-.9.75-.62,1.49-1.66,2.22-3.12.16-.31.4-.47.74-.47.26,0,.39.26.39.78,0,.47-.07.97-.19,1.52-.13.54-.34,1.26-.62,2.14l-.43,1.48c-.1.31-.41.47-.93.47l-1.52-.04c-5.06-.08-8.81-.12-11.25-.12-.88,0-1.83.04-2.84.12-1.35.05-2.27.08-2.77.08-.23.03-.41-.04-.54-.17Z"/>
    </g>
    <g>
      <path class="cls-3" d="M119.84,181.25c-1.78-.92-3.19-2.21-4.21-3.87-1.03-1.66-1.55-3.55-1.55-5.68,0-2.01.51-3.91,1.55-5.69,1.03-1.78,2.5-3.21,4.42-4.28,1.91-1.07,4.13-1.61,6.65-1.61.91,0,2.05.12,3.44.37,1.38.24,2.46.52,3.24.83.42.18.66.48.73.9.27,1.82.4,3.15.4,4.02,0,.22-.05.39-.15.5-.1.11-.24.17-.41.17-.24,0-.43-.06-.56-.17s-.25-.28-.37-.5c-.58-1.24-1.15-2.15-1.73-2.72-.49-.49-1.04-.87-1.66-1.15-.62-.28-1.39-.41-2.32-.41-1.51,0-2.8.4-3.89,1.21-1.08.81-1.9,1.88-2.44,3.22s-.81,2.79-.81,4.36c0,3.12.5,5.57,1.51,7.34,1.01,1.77,2.55,2.66,4.63,2.66.58,0,1.21-.24,1.89-.73.22-.16.39-.42.51-.78.12-.37.19-.79.21-1.28.05-.75.07-1.73.07-2.92,0-.58-.29-.97-.86-1.2-.67-.27-1.3-.47-1.89-.6-.22-.07-.42-.17-.58-.3-.17-.13-.25-.29-.25-.46,0-.16.07-.28.21-.37s.32-.13.51-.13c.84,0,1.76.03,2.76.1,1.28.05,2.13.07,2.52.07.42,0,1.12-.02,2.09-.07,1.02-.04,1.77-.07,2.26-.07.35,0,.53.17.53.5,0,.2-.05.35-.15.46-.1.11-.26.19-.48.23-.64.18-1.08.38-1.33.6-.24.22-.41.56-.5,1.03-.15.75-.23,1.58-.23,2.49v1.13c0,.13.07.27.21.41l.25.25c.22.22.33.47.33.73,0,.18-.06.34-.16.48-.11.14-.29.23-.53.25-.15.02-.46.14-.93.37-.99.47-2.05.86-3.15,1.2-1.11.33-2.4.5-3.88.5-2.15-.01-4.11-.47-5.9-1.39Z"/>
      <path class="cls-3" d="M153.62,182c-.98-.58-1.86-1.39-2.66-2.46-.8-1.08-1.51-2.13-2.13-3.12-.62-1-1.22-2.12-1.79-3.39-.22-.49-.49-.82-.8-1-.24-.16-.51-.23-.8-.23-.22,0-.33.22-.33.66v6.44c0,.66.18,1.13.55,1.39.37.27,1.04.51,2.04.73.22.05.38.12.48.23.1.11.15.27.15.46,0,.33-.18.5-.53.5l-2.89-.07-2.69-.07c-.4,0-1.2.02-2.39.07-.89.07-1.75.1-2.59.1-.13,0-.27-.05-.4-.15-.13-.1-.2-.21-.2-.35,0-.38.21-.62.63-.73.86-.18,1.44-.4,1.74-.68s.45-.75.45-1.41v-15.07c0-.71-.13-1.21-.4-1.51-.27-.3-.8-.54-1.59-.71-.46-.11-.7-.34-.7-.7,0-.15.06-.28.18-.38s.28-.15.48-.15c.8,0,1.68.04,2.66.13.89.09,1.58.13,2.09.13.42,0,1.03-.04,1.83-.13.97-.13,1.96-.2,2.95-.2,2.66,0,4.69.44,6.09,1.33s2.11,2.21,2.11,3.98c0,1.35-.42,2.44-1.26,3.27s-1.87,1.42-3.09,1.78c-.07.02-.1.08-.1.17s.02.17.07.23c1.11,1.66,2.13,3.1,3.05,4.31.93,1.22,1.84,2.25,2.72,3.09.68.64,1.4,1.05,2.14,1.23s1.63.27,2.67.27c.33,0,.5.21.5.63,0,1.48-1.42,2.22-4.25,2.22-1.68.02-3.02-.27-3.99-.84ZM148.89,169.55c.59-.75.88-1.78.88-3.09,0-1.55-.29-2.69-.86-3.44-.58-.74-1.4-1.11-2.49-1.11-.47,0-.8.21-1,.61-.2.41-.3,1.22-.3,2.44v4.45c0,.84.39,1.26,1.16,1.26,1.15,0,2.02-.37,2.61-1.12Z"/>
      <path class="cls-3" d="M163.31,182.11c-.13-.1-.2-.21-.2-.35,0-.38.21-.62.63-.73.86-.18,1.44-.4,1.74-.68s.45-.75.45-1.41v-15.07c0-.71-.15-1.21-.43-1.49s-.87-.53-1.76-.73c-.42-.11-.63-.35-.63-.73,0-.13.07-.25.2-.35.13-.1.27-.15.4-.15.82,0,1.68.03,2.59.1,1.2.04,1.99.07,2.39.07.42,0,1.25-.02,2.49-.07,1.28-.04,2.17-.07,2.66-.07.35,0,.53.17.53.5,0,.2-.05.35-.15.45s-.26.18-.48.25c-.91.27-1.49.54-1.76.83-.27.29-.4.76-.4,1.43v15.01c0,.62.14,1.07.43,1.34.29.28.86.54,1.73.78.22.07.38.15.48.25.1.1.15.25.15.45,0,.33-.18.5-.53.5-.49,0-1.37-.02-2.66-.07-1.24-.04-2.07-.07-2.49-.07s-1.2.02-2.39.07c-.89.07-1.75.1-2.59.1-.13,0-.26-.06-.4-.16Z"/>
      <path class="cls-3" d="M176.59,182.16c-.11-.11-.16-.23-.16-.37,0-.13.06-.27.18-.4.12-.13.28-.23.48-.3.77-.22,1.3-.46,1.58-.73.28-.27.42-.72.42-1.36v-15.14c0-.71-.15-1.21-.43-1.49s-.87-.53-1.76-.73c-.42-.11-.63-.35-.63-.73,0-.13.07-.25.2-.35.13-.1.27-.15.4-.15.82,0,1.68.03,2.59.1,1.2.04,1.99.07,2.39.07.42,0,1.25-.02,2.49-.07,1.28-.04,2.17-.07,2.66-.07.35,0,.53.17.53.5,0,.2-.05.35-.15.45s-.26.18-.48.25c-.91.27-1.49.54-1.76.83-.27.29-.4.76-.4,1.43v14.77c0,.6.13,1.03.38,1.3s.67.4,1.25.4h3.22c.84,0,1.6-.31,2.29-.93.62-.58,1.22-1.47,1.79-2.69.22-.46.39-.76.51-.88.12-.12.26-.18.41-.18.16,0,.27.07.35.22.08.14.12.3.12.48,0,.07-.02.17-.05.32-.03.14-.06.29-.08.45-.33,1.17-.56,2.04-.7,2.59s-.23,1.21-.3,1.96c-.05.42-.23.63-.56.63l-2.89-.03c-3.36-.09-6.24-.13-8.63-.13-.75,0-1.56.03-2.42.1-1.15.04-1.94.07-2.36.07-.21-.02-.36-.08-.48-.19Z"/>
      <path class="cls-3" d="M196.05,182.16c-.11-.11-.16-.23-.16-.37,0-.13.06-.27.18-.4.12-.13.28-.23.48-.3.77-.22,1.3-.46,1.58-.73.28-.27.42-.72.42-1.36v-15.14c0-.71-.15-1.21-.43-1.49s-.87-.53-1.76-.73c-.42-.11-.63-.35-.63-.73,0-.13.07-.25.2-.35.13-.1.27-.15.4-.15.82,0,1.68.03,2.59.1,1.2.04,1.99.07,2.39.07.42,0,1.25-.02,2.49-.07,1.28-.04,2.17-.07,2.66-.07.35,0,.53.17.53.5,0,.2-.05.35-.15.45s-.26.18-.48.25c-.91.27-1.49.54-1.76.83-.27.29-.4.76-.4,1.43v14.77c0,.6.13,1.03.38,1.3s.67.4,1.25.4h3.22c.84,0,1.6-.31,2.29-.93.62-.58,1.22-1.47,1.79-2.69.22-.46.39-.76.51-.88.12-.12.26-.18.41-.18.16,0,.27.07.35.22.08.14.12.3.12.48,0,.07-.02.17-.05.32-.03.14-.06.29-.08.45-.33,1.17-.56,2.04-.7,2.59s-.23,1.21-.3,1.96c-.05.42-.23.63-.56.63l-2.89-.03c-3.36-.09-6.24-.13-8.63-.13-.75,0-1.56.03-2.42.1-1.15.04-1.94.07-2.36.07-.22-.02-.37-.08-.48-.19Z"/>
    </g>
  </g>
  <g>
    <path class="cls-3" d="M44.45,105.9c-.18,0-.36-.15-.36-.29v-13.94c0-.15.18-.29.36-.29h7.44c4.27,0,7.38,1.96,7.38,5.25s-3.15,5.22-7.38,5.22h-5.14v3.75c0,.14-.18.29-.36.29h-1.94ZM46.75,93.22v6.8h5.08c2.78,0,4.78-1.28,4.78-3.39s-1.97-3.41-4.78-3.41h-5.08Z"/>
    <path class="cls-3" d="M76.3,102.9h-10.07l-1.66,2.69c-.21.31-.27.31-.64.31h-1.97c-.18,0-.27-.1-.27-.17s.09-.19.15-.29l8.89-14.05h1.09l8.89,14.05c.06.1.15.22.15.29s-.09.17-.27.17h-1.97c-.36,0-.42,0-.64-.31l-1.68-2.69ZM67.38,101.06h7.77l-2.42-3.87c-.45-.73-1.36-2.66-1.36-2.66h-.18s-.91,1.93-1.36,2.66l-2.45,3.87Z"/>
    <path class="cls-3" d="M86.19,91.67c0-.15.18-.29.36-.29h7.74c4.27,0,7.38,1.69,7.38,4.77,0,2.35-1.88,3.82-4.66,4.38v.05s.64.46,1.15,1.04l3.45,3.82c.18.19.21.27.21.31,0,.1-.06.15-.24.15h-2.48c-.15,0-.33-.07-.42-.17l-4.48-4.96h-5.35v4.84c0,.14-.18.29-.36.29h-1.94c-.18,0-.36-.15-.36-.29v-13.94h0ZM88.86,93.22v5.83h5.38c2.78,0,4.78-1.02,4.78-2.9s-1.97-2.93-4.78-2.93h-5.38Z"/>
    <path class="cls-3" d="M110.88,98.98h.06s.48-.48.88-.77l9.5-6.6c.27-.19.42-.22.73-.22h2.66c.12,0,.18.07.18.12s-.03.1-.21.22l-8.86,6.17,9.41,7.62c.09.07.15.12.15.22,0,.07-.06.17-.27.17h-2.57c-.27,0-.45-.02-.67-.19l-7.99-6.46-2.99,2.1v4.26c0,.14-.18.29-.36.29h-1.94c-.18,0-.36-.15-.36-.29v-13.95c0-.15.18-.29.36-.29h1.94c.18,0,.36.14.36.29v7.31h-.01Z"/>
  </g>
  <g>
    <path class="cls-3" d="M221,96.7c-.37,0-.51-.07-.54-.41-.2-1.93-2.47-3.56-6.62-3.56-4.36,0-7.64,2.08-7.64,5.66s3.28,5.66,7.64,5.66c4.12,0,6.35-1.4,6.62-3.29.03-.36.14-.44.57-.44h1.89c.2,0,.54-.05.54.19,0,2.88-3.55,5.37-9.63,5.37s-10.61-2.81-10.61-7.5,4.6-7.5,10.61-7.5c6.42,0,9.63,2.95,9.63,5.56,0,.12-.14.24-.51.24h-1.95v.02Z"/>
    <path class="cls-3" d="M233.75,105.36c0,.14-.2.29-.41.29h-2.16c-.2,0-.41-.15-.41-.29v-13.93c0-.15.2-.29.41-.29h2.16c.2,0,.41.14.41.29v13.93Z"/>
    <path class="cls-3" d="M240.03,92.64v-1.16c0-.15.27-.34.47-.34h18.99c.2,0,.47.19.47.34v1.16c0,.14-.27.34-.47.34h-8.01v12.39c0,.14-.2.29-.41.29h-2.16c-.2,0-.41-.15-.41-.29v-12.39h-8.01c-.19,0-.46-.2-.46-.34Z"/>
    <path class="cls-3" d="M264.16,91.48c-.1-.1-.14-.15-.14-.19,0-.07.07-.14.2-.14h2.57c.41,0,.54.02.81.29l5.1,4.77c.74.68,1.45,1.48,1.45,1.48h.2s.74-.8,1.45-1.48l5.1-4.77c.27-.27.41-.29.81-.29h2.57c.14,0,.2.07.2.14,0,.05-.03.1-.14.19l-8.62,8.1v5.78c0,.14-.2.29-.41.29h-2.16c-.2,0-.41-.15-.41-.29v-5.78l-8.58-8.1Z"/>
  </g>
  <line class="cls-1" x1="39.89" y1="116.7" x2="288.71" y2="116.7"/>
  <g>
    <path class="cls-3" d="M164.3,63.82c1.75,0,2.92-.26,3.55-.44-.42-1.57-1.85-2.74-3.55-2.74s-3.13,1.16-3.55,2.74c.62.18,1.8.44,3.55.44Z"/>
    <path class="cls-3" d="M184.9,94.35c-2.41,1.17-9.24,3.88-20.6,3.88s-18.23-2.73-20.61-3.88l-3.97,2.07v11.22h49.14v-11.22l-3.96-2.07Z"/>
    <path class="cls-3" d="M156.22,66.33c.08.04,2.76,1.31,8.08,1.31s8.1-1.32,8.13-1.34c.06-.03.13-.05.19-.08,0-.43-.09-.86-.3-1.26-.7-1.3-2.3-1.8-3.61-1.1,0,0-1.48.7-4.41.7s-4.36-.68-4.37-.68c-1.3-.7-2.93-.22-3.63,1.08-.22.4-.31.83-.31,1.26.08.05.15.07.23.11Z"/>
    <g>
      <polygon class="cls-3" points="171.79 82.89 174.05 82.89 174.05 77.94 174.01 77.94 171.79 82.89"/>
      <path class="cls-3" d="M186.27,89.46c-.32-.6-.84-1.02-1.43-1.24,1.22-.73,1.66-2.3.98-3.56-.4-.75-1.12-1.22-1.9-1.35.98-.79,1.3-2.19.68-3.34-.54-1.01-1.63-1.52-2.7-1.39.89-.8,1.16-2.13.57-3.24-.53-1-1.61-1.52-2.67-1.4.28-.71.27-1.52-.11-2.25-.63-1.19-2.03-1.69-3.27-1.26.32-.72.33-1.58-.07-2.33-.68-1.3-2.29-1.8-3.6-1.13-.03.01-2.84,1.42-8.47,1.42s-8.44-1.4-8.44-1.4c-1.3-.7-2.93-.22-3.63,1.08-.41.76-.41,1.63-.08,2.36-1.23-.44-2.62.06-3.26,1.24-.39.73-.4,1.55-.12,2.27-1.06-.12-2.13.39-2.66,1.38-.6,1.11-.33,2.44.56,3.25-1.06-.13-2.15.38-2.69,1.38-.62,1.16-.31,2.57.68,3.36-.78.14-1.49.6-1.9,1.35-.68,1.26-.24,2.82.97,3.55-.59.22-1.1.63-1.43,1.23-.7,1.3-.22,2.93,1.08,3.63.25.14,5.69,3.27,16.41,4,0-.04-.01-.08-.01-.13,0-2.48,2.01-4.49,4.49-4.49s4.49,2.01,4.49,4.49c0,.04-.01.08-.01.13,10.72-.73,16.16-3.86,16.41-4,1.35-.7,1.83-2.31,1.13-3.61ZM158.37,87.61h-.01c0,.56-.26,1.02-1.02,1.02h-6.17c-.94,0-1.32-.34-1.32-1.56,0-1.5.94-2.86,2.02-4.02,1.48-1.62,3.24-3.02,3.24-4.86,0-.96-.34-1.5-1.1-1.5-.52,0-.86.28-1.06.92-.2.58-.42.98-1.2.9l-.88-.1c-.74-.08-.92-.58-.8-1.1.44-2.16,1.78-3.22,4.16-3.22,2.86,0,4.06,1.48,4.06,3.94,0,2.9-2.62,4.82-3.96,6.39-.42.5-.68,1.06-.74,1.5h3.76c.76,0,1.02.46,1.02,1.02v.67ZM168.32,87.61h-.01c0,.56-.26,1.02-1.02,1.02h-6.17c-.94,0-1.32-.34-1.32-1.56,0-1.5.94-2.86,2.02-4.02,1.48-1.62,3.24-3.02,3.24-4.86,0-.96-.34-1.5-1.1-1.5-.52,0-.86.28-1.06.92-.2.58-.42.98-1.2.9l-.88-.1c-.74-.08-.92-.58-.8-1.1.44-2.16,1.78-3.22,4.16-3.22,2.86,0,4.06,1.48,4.06,3.94,0,2.9-2.62,4.82-3.96,6.39-.42.5-.68,1.06-.74,1.5h3.76c.76,0,1.02.46,1.02,1.02v.67ZM178.74,84.67c0,.56-.26.82-1.02.82h-.62v2.12c0,.76-.46,1.02-1.02,1.02h-1.02c-.56,0-1.02-.26-1.02-1.02v-2.12h-3.8c-.56,0-1.02-.26-1.02-1.02v-1.12c0-.6.18-1.04.42-1.58l3.12-6.63c.24-.56.62-.92,1.24-.92h2.08c.56,0,1.02.26,1.02,1.02v7.65h.62c.76,0,1.02.26,1.02.82v.96Z"/>
    </g>
  </g>
</svg>